<svg width="14" height="22" viewBox="0 0 14 22" fill="none" xmlns="http://www.w3.org/2000/svg">
<path d="M10.62 7.42203C10.475 7.63503 10.239 7.75003 9.999 7.75003C9.854 7.75003 9.707 7.70803 9.578 7.62003L7.121 5.95003C7.054 5.90603 6.947 5.90703 6.865 5.96003L4.422 7.62003C4.08 7.85403 3.613 7.76503 3.38 7.42203C3.147 7.07903 3.236 6.61303 3.578 6.38003L6.035 4.71003C6.627 4.32503 7.373 4.32603 7.952 4.70103L10.422 6.38003C10.764 6.61303 10.853 7.07903 10.62 7.42203ZM10.62 11.422C10.475 11.635 10.239 11.75 9.999 11.75C9.854 11.75 9.707 11.708 9.578 11.62L7.121 9.95003C7.054 9.90703 6.947 9.90603 6.865 9.96003L4.422 11.62C4.08 11.853 3.613 11.765 3.38 11.422C3.147 11.079 3.236 10.613 3.578 10.38L6.035 8.71003C6.627 8.32503 7.373 8.32603 7.952 8.70103L10.422 10.38C10.764 10.613 10.853 11.079 10.62 11.422ZM12.976 3.95303L7.976 0.551029C7.383 0.148029 6.616 0.148029 6.023 0.551029L1.023 3.95303C0.539 4.28303 0.25 4.83203 0.25 5.42203V16.577C0.25 17.168 0.539 17.717 1.023 18.047L6.022 21.447C6.319 21.651 6.66 21.752 7 21.752C7.34 21.752 7.68 21.651 7.976 21.448L12.976 18.047C13.461 17.717 13.75 17.168 13.75 16.577V5.42203C13.75 4.83203 13.461 4.28303 12.976 3.95303Z" fill="black"/>
</svg>
