<svg width="25" height="24" viewBox="0 0 25 24" fill="none" xmlns="http://www.w3.org/2000/svg">
<path fill-rule="evenodd" clip-rule="evenodd" d="M3.5 9C4.05228 9 4.5 9.44772 4.5 10V14C4.5 14.5523 4.05228 15 3.5 15C2.94772 15 2.5 14.5523 2.5 14L2.5 10C2.5 9.44772 2.94772 9 3.5 9Z" fill="white"/>
<path fill-rule="evenodd" clip-rule="evenodd" d="M8 5C8.55228 5 9 5.44772 9 6L9 18C9 18.5523 8.55229 19 8 19C7.44772 19 7 18.5523 7 18L7 6C7 5.44772 7.44772 5 8 5Z" fill="white"/>
<path fill-rule="evenodd" clip-rule="evenodd" d="M12.5 2C13.0523 2 13.5 2.44772 13.5 3V21C13.5 21.5523 13.0523 22 12.5 22C11.9477 22 11.5 21.5523 11.5 21V3C11.5 2.44772 11.9477 2 12.5 2Z" fill="white"/>
<path fill-rule="evenodd" clip-rule="evenodd" d="M17 5C17.5523 5 18 5.44772 18 6V18C18 18.5523 17.5523 19 17 19C16.4477 19 16 18.5523 16 18V6C16 5.44772 16.4477 5 17 5Z" fill="white"/>
<path fill-rule="evenodd" clip-rule="evenodd" d="M21.5 9C22.0523 9 22.5 9.44772 22.5 10V14C22.5 14.5523 22.0523 15 21.5 15C20.9477 15 20.5 14.5523 20.5 14V10C20.5 9.44772 20.9477 9 21.5 9Z" fill="white"/>
</svg>
