<svg width="111" height="44" viewBox="0 0 111 44" fill="none" xmlns="http://www.w3.org/2000/svg">
<path d="M21 43H8.11111C4.18375 43 1 39.5811 1 35.3636V8.63636C1 4.41892 4.18375 1 8.11111 1H21" stroke="url(#paint0_linear_1_7089)" stroke-width="2"/>
<mask id="path-2-inside-1_1_7089" fill="white">
<path d="M21 0H90V44H21V0Z"/>
</mask>
<path d="M21 2H90V-2H21V2ZM90 42H21V46H90V42Z" fill="url(#paint1_angular_1_7089)" mask="url(#path-2-inside-1_1_7089)"/>
<path d="M90 43H95.0282H102.24C106.526 43 110 39.5811 110 35.3636V16.8586C110 14.5929 108.978 12.4442 107.209 10.9933L97.187 2.77111C95.7921 1.62674 94.0336 1 92.2175 1H90" stroke="url(#paint2_linear_1_7089)" stroke-width="2"/>
<defs>
<linearGradient id="paint0_linear_1_7089" x1="11" y1="1" x2="11" y2="43" gradientUnits="userSpaceOnUse">
<stop stop-color="#89F9E8"/>
<stop offset="1" stop-color="#FACB7B"/>
</linearGradient>
<radialGradient id="paint1_angular_1_7089" cx="0" cy="0" r="1" gradientUnits="userSpaceOnUse" gradientTransform="translate(55.5 22) rotate(90) scale(22 34.5)">
<stop offset="0.130059" stop-color="#FACB7C"/>
<stop offset="0.358399" stop-color="#89F9E8"/>
<stop offset="0.629894" stop-color="#9299FC"/>
<stop offset="0.880516" stop-color="#D77DEE"/>
</radialGradient>
<linearGradient id="paint2_linear_1_7089" x1="92.9268" y1="1" x2="92.9268" y2="43" gradientUnits="userSpaceOnUse">
<stop stop-color="#9099FC"/>
<stop offset="1" stop-color="#D87CEE"/>
</linearGradient>
</defs>
</svg>
