<svg width="23" height="20" viewBox="0 0 23 20" fill="none" xmlns="http://www.w3.org/2000/svg">
<path fill-rule="evenodd" clip-rule="evenodd" d="M16.7413 4.11943e-07H6.2587C5.45374 -1.19578e-05 4.78937 -2.21655e-05 4.24818 0.0441949C3.68608 0.0901201 3.16937 0.188684 2.68404 0.435975C1.93139 0.819469 1.31947 1.43139 0.935975 2.18404C0.688684 2.66937 0.59012 3.18608 0.544195 3.74818C0.499978 4.28937 0.499988 4.95372 0.5 5.75869V14.2413C0.499988 15.0463 0.499978 15.7106 0.544195 16.2518C0.59012 16.8139 0.688684 17.3306 0.935975 17.816C1.31947 18.5686 1.93139 19.1805 2.68404 19.564C3.16937 19.8113 3.68608 19.9099 4.24818 19.9558C4.78937 20 5.45372 20 6.25868 20H16.7413C17.5463 20 18.2106 20 18.7518 19.9558C19.3139 19.9099 19.8306 19.8113 20.316 19.564C21.0686 19.1805 21.6805 18.5686 22.064 17.816C22.3113 17.3306 22.4099 16.8139 22.4558 16.2518C22.5 15.7106 22.5 15.0463 22.5 14.2413V5.75868C22.5 4.95372 22.5 4.28937 22.4558 3.74818C22.4099 3.18608 22.3113 2.66937 22.064 2.18404C21.6805 1.43139 21.0686 0.819469 20.316 0.435975C19.8306 0.188684 19.3139 0.0901201 18.7518 0.0441949C18.2106 -2.21655e-05 17.5463 -1.19578e-05 16.7413 4.11943e-07ZM3.50608 7.93935C3.56713 7.39045 4.06159 6.99497 4.61049 7.05602C6.86692 7.30698 8.9708 8.31829 10.5762 9.92367C12.1816 11.529 13.1929 13.6329 13.4438 15.8894C13.5049 16.4383 13.1094 16.9327 12.5605 16.9938C12.0116 17.0548 11.5171 16.6593 11.4561 16.1104C11.2553 14.3053 10.4463 12.6222 9.16196 11.3379C7.87766 10.0536 6.19456 9.24453 4.38941 9.04377C3.84051 8.98272 3.44503 8.48825 3.50608 7.93935ZM3.52012 11.9001C3.63049 11.3589 4.15864 11.0097 4.69978 11.1201C5.85285 11.3552 6.91131 11.9243 7.74344 12.7564C8.57557 13.5885 9.14462 14.647 9.37978 15.8C9.49015 16.3412 9.14093 16.8693 8.59978 16.9797C8.05864 17.0901 7.53049 16.7409 7.42012 16.1997C7.26335 15.431 6.88398 14.7254 6.32923 14.1706C5.77448 13.6159 5.06884 13.2365 4.30012 13.0797C3.75898 12.9693 3.40976 12.4412 3.52012 11.9001ZM4.49995 14.9999C3.94767 14.9999 3.49995 15.4476 3.49995 15.9999C3.49995 16.5522 3.94767 16.9999 4.49995 16.9999H4.50995C5.06224 16.9999 5.50995 16.5522 5.50995 15.9999C5.50995 15.4476 5.06224 14.9999 4.50995 14.9999H4.49995Z" fill="white"/>
</svg>
