<svg width="20" height="16" viewBox="0 0 20 16" fill="none" xmlns="http://www.w3.org/2000/svg">
<path fill-rule="evenodd" clip-rule="evenodd" d="M1 5L12.126 5C12.5701 6.72523 14.1362 8 16 8C18.2091 8 20 6.20914 20 4C20 1.79086 18.2091 0 16 0C14.1362 0 12.5701 1.27477 12.126 3L1 3C0.447715 3 0 3.44772 0 4C0 4.55228 0.447715 5 1 5Z" fill="white"/>
<path fill-rule="evenodd" clip-rule="evenodd" d="M19 11L7.87398 11C7.42994 9.27477 5.86384 8 4 8C1.79086 8 0 9.79086 0 12C0 14.2091 1.79086 16 4 16C5.86384 16 7.42994 14.7252 7.87398 13L19 13C19.5523 13 20 12.5523 20 12C20 11.4477 19.5523 11 19 11Z" fill="white"/>
</svg>
